<?xml version="1.0" encoding="utf-8"?>
<!-- Generator: Adobe Illustrator 25.4.0, SVG Export Plug-In . SVG Version: 6.00 Build 0)  -->
<svg version="1.1" id="Capa_1" xmlns="http://www.w3.org/2000/svg" xmlns:xlink="http://www.w3.org/1999/xlink" x="0px" y="0px"
	 viewBox="0 0 128 128" style="enable-background:new 0 0 128 128;" xml:space="preserve">
<style type="text/css">
	.st0{fill:#112C43;}
	.st1{fill:#E30613;}
	.st2{fill:#3AAA35;}
</style>
<g>
	<path class="st0" d="M5.8,63.1c0.7-1.3,1.8-2.3,2.8-3.4c8.2-8.6,17.2-16.1,27.7-21.9c6.7-3.7,13.7-6.3,21.2-7.5
		c7.6-1.1,15-0.1,22.2,2.3c1.6,0.5,2.2,1.9,1.7,3.3c-0.5,1.3-1.8,2-3.3,1.5c-4.5-1.5-9.1-2.4-13.8-2.5c-4,0-8,0.5-11.9,1.6
		c-9.6,2.7-17.9,7.7-25.7,13.6c-5.2,3.9-9.9,8.3-14.4,13c-0.6,0.7-0.6,1.1,0,1.8c5.4,6.4,11.4,12.1,18.4,16.8c1,0.7,1.9,1.5,1.7,2.8
		c-0.2,2-2.4,2.9-4.1,1.7c-2.5-1.7-4.9-3.5-7.3-5.4c-5.3-4.4-10-9.2-14.2-14.7c-0.3-0.5-0.6-0.9-1-1.4C5.8,64.3,5.8,63.7,5.8,63.1z"
		/>
	<path class="st0" d="M64.4,98.1c-8.6-0.1-16.3-1.8-23.6-4.9c-2.2-0.9-1.5-1-3.1,0.6c-4.2,4.2-8.5,8.5-12.7,12.7
		c-0.5,0.5-0.9,0.9-1.6,1.1c-1.1,0.3-2.2-0.1-2.8-1c-0.6-0.9-0.5-2.2,0.2-3.1c0.2-0.3,0.5-0.5,0.8-0.8c27-27,54-54,81-81
		c0.7-0.7,1.3-1.4,2.4-1.4c1.1,0,1.9,0.4,2.3,1.3c0.5,0.9,0.4,1.9-0.2,2.8c-0.2,0.3-0.6,0.6-0.9,0.9c-4.2,4.2-8.3,8.4-12.5,12.5
		c-0.6,0.6-0.8,0.9,0.1,1.4c10.2,6,19.2,13.6,27.2,22.4c1.6,1.8,1.6,3,0.1,4.7c-8.1,9-17.2,16.7-27.7,22.8
		c-7.2,4.2-14.8,7.3-23.1,8.5C68.2,97.9,66,98.1,64.4,98.1z M83.5,63.9c-0.2,6.4-2.7,11.7-7.8,15.6c-3.7,2.8-7.9,4.2-12.5,4
		c-3.8-0.1-7.4-1.3-10.5-3.5c-0.5-0.3-0.8-0.4-1.3,0c-2.6,2.6-5.2,5.3-7.9,7.9c-0.6,0.6-0.4,0.8,0.3,1.1c1.1,0.4,2.1,0.8,3.2,1.2
		c6.7,2.3,13.5,3.2,20.6,2.6c5.5-0.5,10.8-2.1,15.8-4.4c12.4-5.6,22.8-14,32.1-23.7c0.6-0.6,0.4-0.9-0.1-1.4
		c-2.5-2.6-5.1-5.1-7.8-7.5c-5.5-4.8-11.3-9.1-17.6-12.8c-0.8-0.4-1.2-0.4-1.8,0.3c-2.6,2.7-5.3,5.3-8,8c-0.7,0.7-0.8,1.1-0.2,2
		C82.4,56.3,83.4,60,83.5,63.9z M64.3,78.4c0.1,0,0.5-0.1,0.9-0.1c10.2-0.8,16.5-12.2,11.2-21.5C76,56,75.7,55.8,75,56.5
		c-6.2,6.2-12.3,12.4-18.5,18.5c-0.7,0.7-0.5,1,0.2,1.4C58.9,77.7,61.4,78.3,64.3,78.4z"/>
	<path class="st0" d="M64.2,44.4c0.8,0.1,1.9,0.2,3,0.4c1.5,0.3,2.4,1.6,2.2,2.9c-0.3,1.4-1.5,2.3-3,2c-7.2-1.1-12.5,2.8-15,7.2
		c-1.7,2.9-2.2,6.1-1.6,9.4c0.2,1.6-0.6,2.8-2.1,3.1c-1.4,0.2-2.5-0.7-2.9-2.2c-1.6-7.3,2.1-15.7,8.9-19.9
		C56.8,45.4,60.2,44.5,64.2,44.4z"/>
</g>
</svg>
