<?xml version="1.0" encoding="utf-8"?>
<!-- Generator: Adobe Illustrator 25.4.0, SVG Export Plug-In . SVG Version: 6.00 Build 0)  -->
<svg version="1.1" id="Capa_1" xmlns="http://www.w3.org/2000/svg" xmlns:xlink="http://www.w3.org/1999/xlink" x="0px" y="0px"
	 viewBox="0 0 128 128" style="enable-background:new 0 0 128 128;" xml:space="preserve">
<style type="text/css">
	.st0{fill:#112C43;}
	.st1{fill:#E30613;}
	.st2{fill:#3AAA35;}
</style>
<g>
	<path class="st0" d="M122.1,64.9c-0.6,1.2-1.6,2-2.4,3c-9.1,9.7-19.3,18.1-31.4,24c-6.3,3.1-12.9,5.3-19.8,6
		c-6.2,0.7-12.3-0.1-18.3-1.9C39.7,92.8,30.5,87.2,22,80.4c-5.3-4.2-10.2-8.8-14.7-13.8c-1.9-2.1-1.9-3.1,0-5.3
		c8-8.8,17-16.5,27.3-22.5c7.1-4.2,14.7-7.3,22.9-8.5c6.4-1,12.8-0.5,19.1,0.9c11.5,2.5,21.4,8.1,30.4,15.6
		c5.3,4.4,10,9.3,14.2,14.8c0.3,0.5,0.6,0.9,0.9,1.4C122.1,63.7,122.1,64.3,122.1,64.9z M64.5,92.9c0.9,0,2.3,0,3.7-0.2
		c6.5-0.8,12.6-2.8,18.4-5.8c11.1-5.7,20.6-13.5,29.2-22.4c0.5-0.6,0.4-0.9,0-1.4c-1.7-2.1-3.6-4.1-5.5-6.1
		c-8.8-8.9-18.9-15.9-31-19.7c-6.3-1.9-12.7-2.7-19.2-2.1c-6.3,0.6-12.3,2.7-18,5.5c-11.3,5.6-20.8,13.5-29.5,22.5
		c-0.5,0.6-0.6,0.9,0,1.5c2.4,2.5,4.9,4.9,7.5,7.3c7.3,6.5,15.2,12.2,24.2,16.3C50.6,91.1,57.1,92.9,64.5,92.9z"/>
	<path class="st0" d="M44.5,64c0.2-11,8.7-19.6,19.6-19.6c11,0,19.5,8.6,19.5,19.5c0,10.9-8.5,19.6-19.5,19.6
		C53.1,83.5,44.8,74.9,44.5,64z M49.6,64c0.2,7.7,5.9,14.4,14.3,14.4c8,0.1,14.4-6.1,14.4-14.4c0-8.2-6.4-14.4-14.3-14.4
		C56,49.6,49.9,55.8,49.6,64z"/>
</g>
</svg>
