<?xml version="1.0" encoding="utf-8"?>
<!-- Generator: Adobe Illustrator 25.4.0, SVG Export Plug-In . SVG Version: 6.00 Build 0)  -->
<svg version="1.1" id="Capa_1" xmlns="http://www.w3.org/2000/svg" xmlns:xlink="http://www.w3.org/1999/xlink" x="0px" y="0px"
	 viewBox="0 0 128 128" style="enable-background:new 0 0 128 128;" xml:space="preserve">
<style type="text/css">
	.st0{fill:#112C43;}
	.st1{fill:#E30613;}
	.st2{fill:#3AAA35;}
</style>
<g>
	<path class="st0" d="M59.4,120.9c-2.8-0.4-5.6-0.7-8.4-1.4c-9.8-2.4-18.4-7-25.7-13.8c-8.9-8.3-14.7-18.4-17-30.4
		C5.3,60.4,7.8,46.5,16,33.7C24.7,20,37.2,11.5,53.1,8.2c3.7-0.8,7.4-1.1,11.1-1c2.3,0.1,4,1.6,4.3,4c0.2,2.1-1.2,4.1-3.3,4.6
		c-1.6,0.4-3.3,0.2-5,0.3c-9,0.8-17.2,3.8-24.5,9.2C26.5,32.1,20.2,40.9,17.5,52c-3.6,14.5-1.1,28.1,7.7,40.2
		c6.6,9.2,15.4,15.4,26.4,18.3c14.7,3.8,28.4,1.3,40.8-7.6c9.2-6.7,15.3-15.6,18.3-26.6c1-3.9,1.5-7.8,1.6-11.8
		c0-2.4,1.2-4.1,3.3-4.6c2.3-0.6,4.1,0.3,5.4,2.9c0,2,0,4,0,6c-0.3,2.1-0.6,4.2-1,6.3c-2.4,12-8.2,22.3-17.1,30.6
		c-7.3,6.8-15.9,11.4-25.6,13.8c-2.8,0.7-5.7,1-8.5,1.4C65.6,120.9,62.5,120.9,59.4,120.9z"/>
	<path class="st2" d="M34.3,56.1c0-1.2,0.9-2.5,2.5-3.2c1.7-0.8,3.3-0.5,4.5,0.8c2.4,2.4,4.6,4.9,6.9,7.4c2.2,2.4,4.3,4.7,6.5,7.1
		c1.5,1.6,3,3.2,4.5,4.9c0.7,0.8,1.1,0.8,1.8,0.1c8.2-8.2,16.3-16.5,24.6-24.6c8.7-8.5,17.1-17.1,25.7-25.6c1.9-1.9,4.4-2,6.1-0.3
		c1.8,1.7,1.8,4.4-0.1,6.3c-9.2,9.2-18.4,18.5-27.7,27.6C81,65.2,72.3,74,63.5,82.7c-2.4,2.4-4.6,2.4-6.9,0
		c-4.9-5.2-9.7-10.6-14.6-15.8c-2.1-2.2-4.1-4.5-6.2-6.7C34.7,59,34.3,58,34.3,56.1z"/>
</g>
</svg>
