<?xml version="1.0" encoding="utf-8"?>
<!-- Generator: Adobe Illustrator 25.4.0, SVG Export Plug-In . SVG Version: 6.00 Build 0)  -->
<svg version="1.1" id="Capa_1" xmlns="http://www.w3.org/2000/svg" xmlns:xlink="http://www.w3.org/1999/xlink" x="0px" y="0px"
	 viewBox="0 0 128 128" style="enable-background:new 0 0 128 128;" xml:space="preserve">
<style type="text/css">
	.st0{fill:#112C43;}
	.st1{fill:#E30613;}
	.st2{fill:#3AAA35;}
</style>
<g>
	<path class="st0" d="M124.9,106.8c-0.7,2.6-1.7,5.1-3.6,7.1c-2.9,3.2-6.5,4.8-10.8,4.8c-26.9,0-53.9,0-80.8,0c-4,0-8.1,0-12.1,0
		C6.5,118.7-0.5,106.9,5,97.2c7.1-12.5,14.4-25,21.6-37.5c8.3-14.3,16.5-28.6,24.8-42.9c2.9-4.9,7.1-7.6,12.8-7.6
		c5.4,0,9.6,2.4,12.4,7.1c10.1,17.5,20.2,35,30.3,52.4c5.1,8.9,10.3,17.8,15.4,26.7c1.1,2,2.1,4,2.6,6.2
		C124.9,103.4,124.9,105.1,124.9,106.8z M64.1,111.2c15.5,0,31,0,46.5,0c4.3,0,7.2-3.2,7-7.5c-0.1-1.6-0.9-2.9-1.6-4.3
		C103.3,77.6,90.7,55.8,78.1,34c-2.6-4.6-5.2-9.1-7.9-13.7c-2.2-3.7-6.7-4.8-10.2-2.4c-1.4,0.9-2.2,2.4-3,3.8
		c-12.7,21.9-25.3,43.9-38,65.8c-2.5,4.4-5,8.7-7.5,13.1c-1.2,2-1.4,4.2-0.5,6.3c1.2,2.9,3.5,4.3,6.7,4.3
		C33.2,111.2,48.6,111.2,64.1,111.2z"/>
	<path class="st1" d="M67.7,62.8c0,5.5,0,11,0,16.5c0,1.1-0.3,1.5-1.4,1.4c-1.5-0.1-3-0.1-4.5,0c-1.1,0.1-1.4-0.3-1.4-1.4
		c0-6.5,0-12.9,0-19.4c0-4.6,0-9.1,0-13.7c0-1.1,0.3-1.5,1.4-1.4c1.5,0.1,3.1,0.1,4.6,0c1,0,1.3,0.3,1.3,1.3
		C67.7,51.7,67.7,57.2,67.7,62.8z"/>
	<path class="st1" d="M64.2,87.7c2.8,0,4.8,2.1,4.8,4.9c0,2.7-2.1,4.7-4.9,4.7c-2.8,0-4.8-2-4.8-4.9C59.3,89.6,61.3,87.7,64.2,87.7z
		"/>
</g>
</svg>
